<svg width="54" height="58" viewBox="0 0 54 58" fill="none" xmlns="http://www.w3.org/2000/svg">
<path d="M49.62 49.2534C52.4094 44.4296 54 38.8486 54 32.8929C54 14.7526 39.1912 0 20.9897 0C14.4472 0 8.35131 1.90457 3.21916 5.17512L4.98995 6.18205C5.3347 6.43963 5.77348 6.61136 6.32195 6.61136C6.32195 6.61136 6.92527 6.61136 3.09379 9.5931C-0.737688 12.5748 -0.377263 16.704 0.821544 14.1047C2.02035 11.4977 3.09379 12.45 1.18197 16.1498C-0.729853 19.8497 2.18489 18.6554 3.17998 20.9191C4.17507 23.1827 4.5355 20.4429 5.01345 24.736C5.01345 24.736 6.21226 26.1644 8.36698 25.4541C10.5217 24.736 8.00655 27.3587 5.7343 29.5052C3.46205 31.6518 4.17507 32.3621 5.37388 33.6734C6.57268 34.9848 7.05064 36.0541 5.96936 37.4904C4.89592 38.9188 7.64613 39.3949 8.35914 40.2301C9.07216 41.0653 8.95463 43.8051 7.2857 44.9994C5.60894 46.1858 8.12408 48.8085 7.76366 52.5084C7.40323 56.2004 7.48942 57.746 9.18185 57.9879C10.8743 58.2299 8.96246 54.772 9.67548 53.2187C10.3963 51.6732 11.2347 54.2959 12.9036 50.1199C12.9036 50.1199 15.8967 50.838 17.2052 46.3029C17.2052 46.3029 19.8379 45.9439 20.3159 44.5154C20.7938 43.087 20.1983 42.1347 24.022 39.0359C27.8456 35.9371 21.3893 33.5485 17.9261 33.4315C17.9261 33.4315 16.6568 33.9466 18.882 29.9736C19.8536 28.2407 16.9702 28.6622 16.2493 27.1167C15.5285 25.5712 13.8595 23.7759 10.506 24.135C7.1525 24.494 6.19659 25.6883 6.07906 23.6588C5.96153 21.6294 7.51292 20.6849 5.83616 20.4429C4.1594 20.2009 4.99778 20.0839 6.79991 18.4135C6.79991 18.4135 5.71863 17.6953 4.64519 18.7725C3.56391 19.8497 1.65209 18.1793 3.92434 15.7986C6.20442 13.41 9.78517 11.6226 9.55011 16.1576C9.31505 20.6849 10.984 14.1126 10.984 14.1126C10.984 14.1126 13.4991 10.9123 16.6098 10.6781C19.7125 10.4361 17.8007 10.319 17.8007 9.24185C17.8007 8.17248 19.2346 11.0293 20.974 10.319C22.7056 9.60091 19.1171 9.36674 19.4775 8.17248C19.8379 6.97822 21.8751 7.33728 22.7056 8.8906C23.544 10.4361 24.4999 8.0554 22.3452 5.54979C20.1905 3.052 20.5509 4.59751 18.5137 5.66688C16.4844 6.74405 17.3228 7.33728 16.9623 5.54979C16.6019 3.76231 16.4844 5.66688 15.5285 4.71459C14.5647 3.76231 17.2366 4.19942 18.6391 4.35553C20.0416 4.50384 19.595 3.52033 19.595 3.52033L20.974 2.92711C20.974 2.92711 21.8751 4.23845 22.9485 3.99648C24.022 3.76231 22.2277 2.09191 23.309 2.32607C24.3902 2.56805 25.8241 1.61576 25.9416 3.04419C26.0592 4.47262 25.1033 6.37719 29.0523 4.23064C29.8515 3.80134 30.3843 3.52033 30.7447 3.34861C31.0111 3.43447 31.2775 3.52814 31.5361 3.62961C31.5596 3.91061 31.6536 4.28528 32.1551 4.5897C33.7065 5.54199 33.2363 4.70679 35.2657 5.90105C37.3029 7.09531 35.9865 8.40665 37.5379 8.64082C39.0893 8.88279 40.531 11.0215 39.3322 11.1464C38.1334 11.2635 38.0159 9.83508 36.2216 9.5931C34.4273 9.35893 36.9425 10.1863 38.1334 11.2635C39.3322 12.3329 39.3322 13.6052 38.1334 14.1047C36.9425 14.6043 37.82 17.3441 39.771 16.985C41.722 16.626 41.0012 14.6043 42.0746 15.0805C43.1559 15.5566 42.7955 16.743 44.5898 17.4612C46.384 18.1793 44.3469 19.1238 46.5016 19.2487C48.6563 19.3735 49.7297 20.2087 47.8179 21.0361C45.9061 21.8713 46.862 22.5816 45.1852 20.56C43.5085 18.5383 43.673 20.4741 43.5085 18.5383C43.3439 16.5947 40.6407 18.4213 39.2069 18.6554C37.773 18.8974 38.964 20.3258 37.6476 20.56C36.3313 20.802 35.7358 20.4429 36.0962 23.5417C36.4567 26.6406 35.6183 27.3509 34.1844 27.3509C32.7506 27.3509 35.3832 29.0213 36.0962 31.1678C36.8171 33.3144 36.9346 34.6257 40.0453 33.7905C43.1559 32.9553 42.2 32.9553 42.5604 34.6257C42.9208 36.2961 44.2372 33.6734 44.4722 35.3438C44.7151 37.0142 41.4791 37.3733 43.2734 38.4427C45.0677 39.512 43.7592 42.0176 42.913 42.6109C42.0746 43.2119 42.6701 45.3506 40.8836 46.3107C39.0893 47.263 41.722 48.9334 40.6407 50.0106C39.5673 51.0878 36.6917 52.3913 37.7652 55.014C38.8464 57.6367 38.8465 56.0834 41.1187 54.1788C43.3831 52.2742 45.3028 49.0583 46.384 49.1754C46.768 49.2144 46.956 49.5188 47.1833 49.7686C47.2068 49.7608 48.8835 50.1277 49.62 49.2534Z" fill="white"/>
</svg>
