<svg width="45" height="32" viewBox="0 0 45 32" fill="none" xmlns="http://www.w3.org/2000/svg">
<path d="M32.625 15.75C35.73 15.75 38.2275 13.23 38.2275 10.125C38.2275 7.02 35.73 4.5 32.625 4.5C29.52 4.5 27 7.02 27 10.125C27 13.23 29.52 15.75 32.625 15.75ZM15.75 13.5C19.485 13.5 22.4775 10.485 22.4775 6.75C22.4775 3.015 19.485 0 15.75 0C12.015 0 9 3.015 9 6.75C9 10.485 12.015 13.5 15.75 13.5ZM32.625 20.25C28.5075 20.25 20.25 22.32 20.25 26.4375V31.5H45V26.4375C45 22.32 36.7425 20.25 32.625 20.25ZM15.75 18C10.5075 18 0 20.6325 0 25.875V31.5H15.75V26.4375C15.75 24.525 16.4925 21.1725 21.0825 18.63C19.125 18.225 17.235 18 15.75 18Z" fill="white"/>
</svg>
