<svg width="57" height="36" viewBox="0 0 57 36" fill="none" xmlns="http://www.w3.org/2000/svg">
<path d="M39.3353 0.656934C35.4608 0.656934 31.8491 1.90511 28.9597 4.07299C25.8733 1.51095 21.9988 0 17.6647 0C7.94585 0 0 7.9489 0 17.6715C0 27.3942 7.94585 35.3431 17.6647 35.3431C21.5392 35.3431 25.1509 34.0949 28.106 31.927C31.1267 34.489 35.0668 36 39.3353 36C49.0541 36 57 28.0511 57 18.3285C57 8.60584 49.0541 0.656934 39.3353 0.656934ZM28.2373 26.3431C26.5956 24.1095 25.6106 21.2847 25.6106 18.2628C25.6106 14.9781 26.7926 11.8905 28.7627 9.52555C29.2223 9 29.682 8.54015 30.1417 8.08029C32.1774 10.708 33.3594 13.9927 33.3594 17.6058C33.3594 21.5474 31.9147 25.0949 29.5507 27.854C29.091 27.3942 28.6313 26.9343 28.2373 26.3431ZM17.6647 31.3358C10.1129 31.3358 3.94009 25.1606 3.94009 17.6058C3.94009 10.0511 10.1129 3.87591 17.6647 3.87591C20.8168 3.87591 23.7062 4.92701 26.0046 6.70073C23.3122 9.78832 21.6705 13.8613 21.6705 18.2628C21.6705 22.2701 23.0495 26.0146 25.2823 28.9708C23.1152 30.4817 20.4885 31.3358 17.6647 31.3358Z" fill="white"/>
</svg>
