<svg width="65" height="23" viewBox="0 0 65 23" fill="none" xmlns="http://www.w3.org/2000/svg">
<path d="M38.9419 0C36.1971 0 33.681 1.56818 32.4611 3.95779C30.7075 0.448052 26.4378 -0.970779 22.8543 0.746753C20.4145 1.94156 18.8133 4.33117 18.8133 7.09416C18.8133 7.24351 18.8133 7.46753 18.8133 7.61688C18.9658 9.40909 19.8045 11.1266 21.1769 12.3214L31.8511 22.776C32.0036 22.9253 32.2323 23 32.4611 23C32.6898 23 32.9186 22.9253 33.071 22.776L43.7453 12.3214C43.8978 12.1721 44.1265 11.9481 44.279 11.7987C45.3464 10.6039 45.9564 9.18507 46.1088 7.61688C46.1088 7.46753 46.1088 7.24351 46.1088 7.09416C46.1851 3.21104 42.9066 0 38.9419 0ZM12.5613 4.03247C12.4088 3.50974 11.7988 3.13636 11.2651 3.21104C11.0364 3.21104 10.8077 3.28571 10.5789 3.43507L0.51465 10.4545C-0.17155 10.9026 -0.17155 12.0227 0.51465 12.4708L10.6552 19.5649C11.1889 19.9383 12.0276 19.789 12.4088 19.2662C12.79 18.7435 12.6375 17.9221 12.1038 17.5487L3.41194 11.5L12.1038 5.4513C12.5613 5.1526 12.79 4.55519 12.5613 4.03247ZM64.56 10.4545L54.3433 3.43507C54.1145 3.28571 53.8858 3.21104 53.657 3.21104C53.1233 3.21104 52.5896 3.50974 52.3609 4.03247C52.2084 4.55519 52.3609 5.1526 52.8184 5.4513L61.5102 11.5L52.8184 17.5487C52.2846 17.9221 52.1322 18.7435 52.5134 19.2662C52.8946 19.789 53.7333 19.9383 54.267 19.5649L64.4075 12.5455C65.17 12.0974 65.17 10.9773 64.56 10.4545Z" fill="white"/>
</svg>
